Coordinates
version=1
nRows=6
nColumns=107
inDegrees=yes

Units are S.I. units (second, meters, Newtons, ...)
If the header above contains a line with 'inDegrees', this indicates whether rotational values are in degrees (yes) or radians (no).

endheader
time	sternoclavicular_r2	sternoclavicular_r3	unrotscap_r3	unrotscap_r2	acromioclavicular_r2	acromioclavicular_r3	acromioclavicular_r1	unrothum_r1	unrothum_r3	unrothum_r2	elv_angle	shoulder_elv	shoulder1_r2	shoulder_rot	elbow_flexion	pro_sup	deviation	flexion	proximal_distal_r1	proximal_distal_r3	cmc_flexion	cmc_abduction	mp_flexion	ip_flexion	mcp2_flexion	mcp2_abduction	pm2_flexion	md2_flexion	mcp3_flexion	mcp3_abduction	pm3_flexion	md3_flexion	mcp4_flexion	mcp4_abduction	pm4_flexion	md4_flexion	mcp5_flexion	mcp5_abduction	pm5_flexion	md5_flexion	bicpt_tx	bicpt_ty	bicpt_tz	bicpt2_tx	bicpt2_ty	bicpt2_tz	ptpt_tx	ptpt_ty	ptpt_tz	FCUpt_tx	FCUpt_ty	FCUpt_tz	EDCpt_tx	EDCpt_ty	EDCpt_tz	APLpt_tx	APLpt_ty	APLpt_tz	FPLpt_tx	FPLpt_ty	FPLpt_tz	FPLpt2_tx	FPLpt2_ty	FPLpt2_tz	PEC1pt2_tx	PEC1pt2_ty	PEC1pt2_tz	PEC1pt3_tx	PEC1pt3_ty	PEC1pt3_tz	PEC2pt2_tx	PEC2pt2_ty	PEC2pt2_tz	PEC2pt3_tx	PEC2pt3_ty	PEC2pt3_tz	PEC3pt2_tx	PEC3pt2_ty	PEC3pt2_tz	PEC3pt3_tx	PEC3pt3_ty	PEC3pt3_tz	DELT2pt2a_tx	DELT2pt2a_ty	DELT2pt2a_tz	DELT2pt2_tx	DELT2pt2_ty	DELT2pt2_tz	LAT1pt2_tx	LAT1pt2_ty	LAT1pt2_tz	LAT1pt3_tx	LAT1pt3_ty	LAT1pt3_tz	LAT2pt2_tx	LAT2pt2_ty	LAT2pt2_tz	LAT2pt3_tx	LAT2pt3_ty	LAT2pt3_tz	LAT3pt2_tx	LAT3pt2_ty	LAT3pt2_tz	LAT3pt3_tx	LAT3pt3_ty	LAT3pt3_tz
     -0.00000000	     -0.31383145	      0.13292419	     -0.13292419	      0.31383145	     -0.06354448	      0.51354417	      0.23083457	     -0.23083457	     -0.51354417	      0.06354448	    101.13621612	     74.30238476	     -1.76515996	    -36.39125100	     31.33287086	     83.66416911	      0.34745976	     -0.59079104	      0.37273518	     -0.29539552	     40.15919650	    -21.23857039	      0.39361107	      5.13147219	     81.77045658	     13.39401945	     77.12789692	     85.93956898	     89.97324756	      1.99277212	     79.19922124	     56.42973506	     87.67276377	    -13.47547450	     89.22877747	     42.34224167	     95.34671623	    -14.28279819	     86.34845695	      5.46196890	      0.00093639	     -0.03119123	     -0.00487845	      0.01447512	     -0.01871173	     -0.00147223	      0.00136816	     -0.06889728	     -0.00678960	      0.01247051	     -0.18231606	      0.00002151	     -0.01003968	      0.00345067	     -0.00068369	      0.00031216	      0.00012487	      0.00062433	      0.00039957	      0.00119870	      0.00067427	     -0.00001028	     -0.00010800	     -0.00012960	      0.00243547	      0.00854478	      0.00594420	     -0.00796687	      0.01923608	     -0.01824538	      0.00243547	      0.00854478	      0.00594420	      0.00053663	      0.01783259	     -0.00937036	      0.00387672	      0.00475164	      0.01579091	      0.00000000	      0.00738091	      0.00000000	     -0.00697617	     -0.03223901	     -0.00608357	      0.02143810	     -0.00098060	     -0.01084332	     -0.00086686	      0.01453026	     -0.00594420	      0.00239419	      0.02096980	     -0.01733724	     -0.00582036	      0.01259014	     -0.00532501	     -0.01213607	      0.02658376	     -0.02976226	     -0.02278608	      0.01407619	     -0.00714129	     -0.01510816	      0.03071168	     -0.03719250
      0.03333333	     -0.31343689	      0.13275707	     -0.13275707	      0.31343689	     -0.06346459	      0.51289852	      0.23054436	     -0.23054436	     -0.51289852	      0.06346459	    100.97243785	     74.20896903	     -1.76230149	    -36.08731683	     31.79711836	     83.93248316	      0.34756857	     -0.59273100	      0.37282065	     -0.29636550	     40.38543703	    -21.07718434	      0.52024147	      5.16515771	     81.87385670	     13.39449504	     77.16066804	     85.93443803	     90.03636280	      1.97533643	     79.23014463	     56.43018986	     87.66487420	    -13.47965927	     89.24751831	     42.34810647	     95.31398943	    -14.28887131	     86.36291157	      5.46595827	      0.00095175	     -0.03124444	     -0.00488702	      0.01444873	     -0.01883784	     -0.00142710	      0.00134834	     -0.06891010	     -0.00681121	      0.01250115	     -0.18230714	      0.00002846	     -0.01007187	      0.00346522	     -0.00069199	      0.00031222	      0.00012489	      0.00062445	      0.00039965	      0.00119894	      0.00067441	     -0.00000998	     -0.00010353	     -0.00012424	      0.00243241	      0.00853404	      0.00593672	     -0.00795686	      0.01921189	     -0.01822244	      0.00243241	      0.00853404	      0.00593672	      0.00053595	      0.01781017	     -0.00935858	      0.00387312	      0.00474567	      0.01578183	      0.00000000	      0.00736225	      0.00000000	     -0.00696740	     -0.03219847	     -0.00606807	      0.02132871	     -0.00096975	     -0.01067444	     -0.00086577	      0.01451199	     -0.00593672	      0.00239118	      0.02094344	     -0.01731544	     -0.00581304	      0.01257431	     -0.00531831	     -0.01212081	      0.02655034	     -0.02972484	     -0.02275744	      0.01405849	     -0.00713231	     -0.01508917	      0.03067307	     -0.03714574
      0.06666667	     -0.31467078	      0.13327969	     -0.13327969	      0.31467078	     -0.06371443	      0.51491762	      0.23145193	     -0.23145193	     -0.51491762	      0.06371443	    100.81480855	     74.50110305	     -1.75955034	    -34.98361290	     31.47983710	     83.22225884	      0.33596310	     -0.63850238	      0.36356341	     -0.31925119	     40.86998360	    -20.96380014	      2.58265952	      4.41108111	     83.78691890	     13.39926279	     78.23711831	     85.15989058	     91.01147635	      1.98347090	     79.83501002	     55.55816185	     88.09360257	    -13.47360850	     88.95521221	     43.55511119	     95.16985643	    -14.28107839	     86.84150824	      5.47935753	      0.00094126	     -0.03120807	     -0.00488117	      0.01451821	     -0.01875165	     -0.00154631	      0.00140081	     -0.06887617	     -0.00675400	      0.01242010	     -0.18233071	      0.00001019	     -0.00998665	      0.00342677	     -0.00067012	      0.00031186	      0.00012474	      0.00062372	      0.00039918	      0.00119755	      0.00067362	     -0.00000929	     -0.00009377	     -0.00011253	      0.00244198	      0.00856763	      0.00596009	     -0.00798818	      0.01928752	     -0.01829418	      0.00244198	      0.00856763	      0.00596009	      0.00053806	      0.01788028	     -0.00939542	      0.00388437	      0.00476435	      0.01581014	      0.00000000	      0.00742070	      0.00000000	     -0.00699483	     -0.03232523	     -0.00611662	      0.02092115	     -0.00093052	     -0.01006892	     -0.00086918	      0.01456912	     -0.00596009	      0.00240059	      0.02102588	     -0.01738361	     -0.00583592	      0.01262381	     -0.00533925	     -0.01216852	      0.02665486	     -0.02984186	     -0.02284702	      0.01411383	     -0.00716039	     -0.01514857	      0.03079382	     -0.03729197
      0.10000000	     -0.31401611	      0.13300240	     -0.13300240	      0.31401611	     -0.06358187	      0.51384634	      0.23097040	     -0.23097040	     -0.51384634	      0.06358187	    101.07375984	     74.34610513	     -1.76406990	    -35.98269441	     31.47029811	     83.83429574	      0.31179725	     -0.69348133	      0.34357982	     -0.34674066	     41.15458816	    -20.87518271	      3.74166951	      4.16937679	     84.92710948	     13.38902064	     78.13729588	     86.56563650	     91.62476158	      1.87911022	     79.81297686	     55.75533362	     88.40485292	    -13.48440995	     89.14970520	     43.17162787	     95.43143618	    -14.28205251	     86.90007607	      5.49618733	      0.00094094	     -0.03120698	     -0.00488099	      0.01445841	     -0.01874906	     -0.00144362	      0.00135559	     -0.06890541	     -0.00680330	      0.01248994	     -0.18231041	      0.00002591	     -0.01006009	      0.00345989	     -0.00068895	      0.00030679	      0.00012271	      0.00061357	      0.00039269	      0.00117806	      0.00066266	     -0.00000885	     -0.00008792	     -0.00010550	      0.00243690	      0.00854981	      0.00594769	     -0.00797156	      0.01924740	     -0.01825611	      0.00243690	      0.00854981	      0.00594769	      0.00053694	      0.01784308	     -0.00937588	      0.00387840	      0.00475444	      0.01579515	      0.00000000	      0.00738966	      0.00000000	     -0.00698028	     -0.03225798	     -0.00609084	      0.02129079	     -0.00096602	     -0.01061650	     -0.00086737	      0.01453881	     -0.00594769	      0.00239560	      0.02098214	     -0.01734744	     -0.00582378	      0.01259755	     -0.00532814	     -0.01214321	      0.02659941	     -0.02977977	     -0.02279949	      0.01408447	     -0.00714549	     -0.01511705	      0.03072975	     -0.03721439
      0.13333333	     -0.31371206	      0.13287362	     -0.13287362	      0.31371206	     -0.06352031	      0.51334880	      0.23074675	     -0.23074675	     -0.51334880	      0.06352031	    100.99902549	     74.27411818	     -1.76276554	    -35.90117759	     31.66923624	     83.86755728	      0.31177229	     -0.69368699	      0.34355841	     -0.34684349	     41.28702012	    -20.83488015	      3.82113431	      4.19463237	     84.96993644	     13.38151601	     78.15012382	     86.56347567	     91.66732766	      1.86649362	     79.82788006	     55.75621882	     88.41486703	    -13.49121834	     89.15792946	     43.17302580	     95.43935417	    -14.28403108	     86.91213450	      5.49833395	      0.00094752	     -0.03122978	     -0.00488466	      0.01445513	     -0.01880310	     -0.00143803	      0.00135313	     -0.06890700	     -0.00680598	      0.01249374	     -0.18230930	      0.00002678	     -0.01006408	      0.00346169	     -0.00068998	      0.00030676	      0.00012270	      0.00061351	      0.00039265	      0.00117794	      0.00066259	     -0.00000864	     -0.00008517	     -0.00010220	      0.00243454	      0.00854153	      0.00594193	     -0.00796384	      0.01922876	     -0.01823844	      0.00243454	      0.00854153	      0.00594193	      0.00053642	      0.01782580	     -0.00936680	      0.00387563	      0.00474984	      0.01578816	      0.00000000	      0.00737526	      0.00000000	     -0.00697352	     -0.03222674	     -0.00607888	      0.02126111	     -0.00096311	     -0.01057147	     -0.00086653	      0.01452473	     -0.00594193	      0.00239328	      0.02096182	     -0.01733064	     -0.00581814	      0.01258535	     -0.00532298	     -0.01213145	      0.02657365	     -0.02975094	     -0.02277742	      0.01407083	     -0.00713857	     -0.01510242	      0.03069999	     -0.03717835
      0.16666667	     -0.31536344	      0.13357307	     -0.13357307	      0.31536344	     -0.06385468	      0.51605108	      0.23196141	     -0.23196141	     -0.51605108	      0.06385468	    100.47213109	     74.66509770	     -1.75356949	    -33.73283559	     31.72661266	     82.86641983	      0.33611923	     -0.62613727	      0.36368945	     -0.31306863	     41.49607558	    -20.96117233	      5.55727942	      4.53577421	     85.52868370	     13.36600022	     78.64027474	     86.64938150	     92.09342264	      1.86955162	     79.94863128	     55.59358892	     88.64785537	    -13.50778635	     89.25660658	     43.09956710	     95.56942794	    -14.28301642	     87.16857068	      5.49718717	      0.00094942	     -0.03123635	     -0.00488572	      0.01455262	     -0.01881869	     -0.00160580	      0.00142711	     -0.06885916	     -0.00672533	      0.01237954	     -0.18234246	      0.00000117	     -0.00994395	      0.00340756	     -0.00065925	      0.00031231	      0.00012493	      0.00062463	      0.00039976	      0.00119929	      0.00067460	     -0.00000828	     -0.00008078	     -0.00009693	      0.00244736	      0.00858649	      0.00597321	     -0.00800576	      0.01932998	     -0.01833445	      0.00244736	      0.00858649	      0.00597321	      0.00053925	      0.01791964	     -0.00941611	      0.00389067	      0.00477484	      0.01582595	      0.00000000	      0.00745362	      0.00000000	     -0.00701023	     -0.03239638	     -0.00614396	      0.02043963	     -0.00088640	     -0.00939794	     -0.00087109	      0.01460119	     -0.00597321	      0.00240588	      0.02107217	     -0.01742187	     -0.00584877	      0.01265160	     -0.00535100	     -0.01219531	      0.02671354	     -0.02990754	     -0.02289732	      0.01414490	     -0.00717615	     -0.01518192	      0.03086160	     -0.03737406
